# xmcd
#
# Track frame offsets:
#	150
#	26585
#	39997
#	53567
#	75250
#	95195
#	107630
#	123030
#	140902
#	159480
#	177607
#	193740
#	211110
#
# Disc length: 3202 seconds
# Revision: 4
# Processed by: cddbd v1.5.2PL0 Copyright (c) Steve Scherf et al.
# Submitted via: dBpowerAMP V12.0
#
DISCID=aa0c800d
DTITLE=Mike Morgan And The Crawl - Ain't Worried no More
DYEAR=1994
DGENRE=Blues
TTITLE0=I Ain't Worried no More
TTITLE1=Crazy Mixed up World
TTITLE2=You Came a Long Way From St. Louis
TTITLE3=I Let Her Slip Right Through my Hands
TTITLE4=Just a Lil' Bit of Your Love
TTITLE5=Uh, Uh, Baby
TTITLE6=Is it Over
TTITLE7=My Baby's in Love With Another Guy
TTITLE8=In Your Arms
TTITLE9=You're on my Mind
TTITLE10=I Just Want to Get to Know You
TTITLE11=I Love my Baby
TTITLE12=Hotel St. Merry
EXTD=
EXTT0=
EXTT1=
EXTT2=
EXTT3=
EXTT4=
EXTT5=
EXTT6=
EXTT7=
EXTT8=
EXTT9=
EXTT10=
EXTT11=
EXTT12=
PLAYORDER=
